<svg width="29" height="29" viewBox="0 0 29 29" fill="none" xmlns="http://www.w3.org/2000/svg">
<path d="M13.4268 2.43555H11.0935C5.26018 2.43555 2.92684 4.76888 2.92684 10.6022V17.6022C2.92684 23.4355 5.26018 25.7689 11.0935 25.7689H18.0935C23.9268 25.7689 26.2602 23.4355 26.2602 17.6022V15.2689" stroke="#7F8EA9" stroke-width="1.5" stroke-linecap="round" stroke-linejoin="round"/>
<path d="M19.3068 3.62568L10.1135 12.819C9.76351 13.169 9.41351 13.8573 9.34351 14.359L8.84184 17.8707C8.65517 19.1423 9.55351 20.029 10.8252 19.854L14.3368 19.3523C14.8268 19.2823 15.5152 18.9323 15.8768 18.5823L25.0702 9.38901C26.6568 7.80235 27.4035 5.95901 25.0702 3.62568C22.7368 1.29235 20.8935 2.03901 19.3068 3.62568Z" stroke="#7F8EA9" stroke-width="1.5" stroke-miterlimit="10" stroke-linecap="round" stroke-linejoin="round"/>
<path d="M17.9885 4.94336C18.7702 7.73169 20.9518 9.91336 23.7518 10.7067" stroke="#7F8EA9" stroke-width="1.5" stroke-miterlimit="10" stroke-linecap="round" stroke-linejoin="round"/>
</svg>
